<?xml version="1.0" standalone="no"?>
<!DOCTYPE svg PUBLIC "-//W3C//DTD SVG 20010904//EN"
 "http://www.w3.org/TR/2001/REC-SVG-20010904/DTD/svg10.dtd">
<svg version="1.0" xmlns="http://www.w3.org/2000/svg"
 width="464.000000pt" height="346.000000pt" viewBox="0 0 464.000000 346.000000"
 preserveAspectRatio="xMidYMid meet">

<g transform="translate(0.000000,346.000000) scale(0.100000,-0.100000)"
fill="#000000" stroke="none">
<path d="M461 3170 c-47 -11 -82 -40 -111 -91 l-25 -44 0 -1325 0 -1325 22
-42 c27 -50 63 -80 114 -93 25 -7 278 -10 736 -8 761 3 725 0 780 60 51 54 53
73 53 434 l0 336 23 -7 c199 -64 335 -64 535 0 l22 7 0 -328 c0 -209 4 -343
11 -369 14 -51 73 -110 124 -124 28 -7 253 -11 720 -11 768 1 750 -1 809 73
l31 39 6 216 c9 289 9 2156 1 2348 -7 145 -8 152 -35 187 -58 77 -7 72 -812
72 -661 0 -723 -1 -751 -17 -43 -23 -81 -71 -94 -116 -6 -22 -10 -170 -10
-366 l0 -328 -22 7 c-200 64 -336 64 -535 0 l-23 -7 0 338 c0 307 -2 343 -19
379 -22 50 -69 91 -119 105 -44 12 -1379 12 -1431 0z m1459 -45 c58 -35 74
-75 79 -197 l3 -108 -821 0 -821 0 0 105 c0 113 8 141 53 183 13 13 37 27 53
32 16 5 342 8 724 7 679 -2 696 -2 730 -22z m2285 2 c61 -37 70 -61 73 -189
l4 -118 -822 0 -823 0 5 108 c5 130 21 166 88 200 l45 23 700 -3 c659 -3 702
-4 730 -21z m-2207 -568 l2 -226 -64 -42 c-87 -56 -186 -165 -233 -256 l-38
-75 -292 0 c-254 0 -293 -2 -293 -15 0 -13 38 -15 285 -15 321 0 294 8 274
-80 -12 -51 -14 -222 -4 -269 l7 -31 -281 0 c-243 0 -281 -2 -281 -15 0 -13
38 -15 284 -15 l284 0 12 -37 c40 -125 155 -275 268 -349 31 -21 60 -42 64
-48 4 -6 8 -82 8 -168 l0 -158 -820 0 -820 0 0 1015 0 1015 818 -2 817 -3 3
-226z m2282 -784 l0 -1015 -817 2 -818 3 -3 161 -2 161 63 41 c117 76 230 218
273 346 l16 46 129 0 129 0 0 -120 c0 -90 3 -120 13 -120 23 0 542 438 542
458 0 22 -530 466 -545 457 -6 -3 -10 -57 -10 -121 l0 -114 -137 0 -138 0 -38
75 c-47 91 -146 200 -233 256 l-64 42 0 222 c0 122 3 225 7 228 3 4 372 7 820
7 l813 0 0 -1015z m-1796 575 c181 -46 345 -178 425 -340 97 -198 95 -420 -6
-613 -56 -108 -174 -223 -285 -276 -267 -129 -555 -83 -764 124 -130 129 -193
282 -194 471 0 175 65 329 195 460 130 130 277 191 466 193 55 1 113 -6 163
-19z m1051 -409 c153 -127 232 -199 227 -207 -4 -7 -113 -100 -242 -207 l-235
-194 -3 108 -3 109 -140 0 -141 0 7 37 c10 55 7 233 -5 273 -21 73 -26 70 135
70 l145 0 0 106 c0 69 4 104 10 102 6 -2 116 -91 245 -197z m-1540 -1386 c0
-192 -8 -220 -75 -260 -34 -19 -52 -20 -710 -23 -728 -4 -758 -2 -802 46 -45
48 -48 63 -48 241 l0 171 818 -2 817 -3 0 -170z m2283 -11 l-3 -185 -41 -39
c-34 -31 -51 -39 -95 -45 -30 -3 -353 -5 -719 -3 -648 3 -666 4 -700 23 -64
38 -75 70 -79 248 -2 86 -1 164 3 172 5 13 107 15 821 15 l816 0 -3 -186z"/>
<path d="M697 2284 c-20 -20 34 -24 324 -24 277 0 319 2 319 15 0 13 -42 15
-318 15 -175 0 -322 -3 -325 -6z"/>
<path d="M885 2109 c-4 -6 -3 -15 2 -20 5 -5 144 -8 334 -7 280 3 324 5 324
18 0 13 -44 15 -327 18 -229 1 -329 -1 -333 -9z"/>
<path d="M725 1420 c-3 -6 0 -12 7 -15 7 -3 172 -4 367 -3 273 2 355 6 359 16
5 16 -723 18 -733 2z"/>
<path d="M1071 1211 c-7 -5 -10 -14 -7 -20 5 -8 85 -11 259 -11 246 0 302 7
267 30 -19 12 -500 13 -519 1z"/>
<path d="M2170 2274 c-200 -53 -367 -224 -415 -426 -74 -313 119 -630 428
-703 200 -47 399 8 543 150 231 227 233 599 5 825 -81 81 -155 124 -257 150
-92 24 -223 25 -304 4z m235 -24 c105 -15 222 -76 304 -159 108 -108 156 -232
154 -396 -4 -393 -424 -650 -778 -476 -141 70 -233 172 -283 315 -35 102 -35
251 0 352 61 173 193 298 369 348 94 26 138 29 234 16z"/>
<path d="M2237 2164 c-4 -4 -7 -25 -7 -46 0 -28 -5 -40 -17 -44 -129 -41 -186
-111 -184 -227 1 -110 54 -177 164 -207 l37 -11 0 -71 c0 -70 0 -71 -19 -54
-11 10 -21 28 -23 40 -3 19 -10 21 -82 24 -44 2 -83 -1 -88 -6 -5 -5 -4 -31 3
-61 17 -82 91 -153 181 -175 21 -5 27 -13 30 -39 l3 -32 85 0 85 0 3 31 c3 29
9 34 61 53 113 41 172 141 150 255 -8 46 -50 116 -68 116 -4 0 -19 9 -32 21
-13 11 -43 25 -66 32 l-43 11 0 61 c0 42 3 56 10 45 5 -8 10 -23 10 -32 0 -16
11 -18 86 -18 l87 0 -5 51 c-7 73 -48 126 -125 164 -61 30 -62 31 -65 75 l-3
45 -80 3 c-45 1 -84 0 -88 -4z m133 -63 c0 -42 9 -53 59 -70 52 -17 101 -59
122 -105 28 -62 26 -66 -34 -66 -49 0 -53 2 -64 29 -12 32 -56 66 -73 56 -14
-9 -13 -178 2 -193 7 -7 20 -12 30 -12 10 0 18 -3 18 -8 0 -4 22 -15 49 -25
29 -10 62 -32 80 -52 28 -32 31 -43 31 -98 0 -101 -50 -164 -158 -197 -52 -16
-57 -20 -60 -49 -3 -30 -5 -31 -53 -31 -44 0 -49 2 -49 23 0 33 -10 42 -70 61
-30 10 -66 27 -80 38 -33 25 -70 87 -70 116 0 20 5 22 55 22 42 0 55 -4 55
-15 0 -24 53 -75 80 -77 25 -3 25 -2 28 82 4 120 3 123 -65 144 -77 25 -98 40
-123 90 -27 56 -26 120 3 176 27 53 57 76 128 99 53 18 54 19 57 59 l3 42 50
0 49 0 0 -39z"/>
<path d="M2215 1943 c-16 -9 -35 -23 -42 -32 -13 -17 -17 -60 -7 -86 9 -21 77
-56 93 -46 15 9 11 173 -4 177 -5 2 -23 -4 -40 -13z m15 -78 c0 -47 -12 -58
-30 -26 -7 13 -7 28 0 45 15 40 30 31 30 -19z"/>
<path d="M2376 1614 c-3 -9 -6 -49 -6 -90 0 -86 9 -95 64 -69 27 13 39 27 47
55 14 45 2 72 -44 100 -39 24 -53 25 -61 4z m67 -56 c13 -19 2 -64 -18 -72
-12 -4 -15 4 -15 45 0 51 12 61 33 27z"/>
</g>
</svg>
